<svg width="100" height="20" viewBox="0 0 100 20" fill="none" xmlns="http://www.w3.org/2000/svg">
<rect x="3.5" y="3.5" width="94" height="14" rx="7" fill="#D9D9D9" stroke="black"/>
<path d="M22.3333 11C22.3333 12.4728 23.5272 13.6667 25 13.6667C26.4728 13.6667 27.6667 12.4728 27.6667 11C27.6667 9.52724 26.4728 8.33333 25 8.33333C23.5272 8.33333 22.3333 9.52724 22.3333 11ZM73.3333 11C73.3333 12.4728 74.5272 13.6667 76 13.6667C77.4728 13.6667 78.6667 12.4728 78.6667 11C78.6667 9.52724 77.4728 8.33333 76 8.33333C74.5272 8.33333 73.3333 9.52724 73.3333 11ZM25 11V11.5H76V11V10.5H25V11Z" fill="black"/>
</svg>
