<svg width="24" height="24" viewBox="0 0 24 24" fill="none" xmlns="http://www.w3.org/2000/svg">
<path d="M3 9.4C3 7.15979 3 6.03968 3.43597 5.18404C3.81947 4.43139 4.43139 3.81947 5.18404 3.43597C6.03968 3 7.15979 3 9.4 3H14.6C16.8402 3 17.9603 3 18.816 3.43597C19.5686 3.81947 20.1805 4.43139 20.564 5.18404C21 6.03968 21 7.15979 21 9.4V14.6C21 16.8402 21 17.9603 20.564 18.816C20.1805 19.5686 19.5686 20.1805 18.816 20.564C17.9603 21 16.8402 21 14.6 21H9.4C7.15979 21 6.03968 21 5.18404 20.564C4.43139 20.1805 3.81947 19.5686 3.43597 18.816C3 17.9603 3 16.8402 3 14.6V9.4Z" stroke="black" stroke-width="1.5" stroke-linecap="round" stroke-linejoin="round"/>
<path fill-rule="evenodd" clip-rule="evenodd" d="M6 7C6 5.34315 7.34315 4 9 4H17C18.6569 4 20 5.34315 20 7V10C20 11.6569 18.6569 13 17 13H9C7.34315 13 6 11.6569 6 10V7ZM10.5 5.5C10.6894 5.5 10.8625 5.607 10.9472 5.77639L12.6139 9.10973L13.4472 10.7764C13.5707 11.0234 13.4706 11.3237 13.2236 11.4472C12.9766 11.5707 12.6763 11.4706 12.5528 11.2236L11.8576 9.83333H9.14234L8.4472 11.2236C8.32371 11.4706 8.02337 11.5707 7.77638 11.4472C7.52939 11.3237 7.42928 11.0234 7.55277 10.7764L8.38611 9.10973L10.0528 5.77639C10.1375 5.607 10.3106 5.5 10.5 5.5ZM11.3576 8.83333L10.5 7.11803L9.64234 8.83333H11.3576ZM15.5 10.5V6.5H16.6667C17.7101 6.5 18.5 7.28543 18.5 8.1875V8.8125C18.5 9.71457 17.7101 10.5 16.6667 10.5H15.5ZM15.3333 5.5C14.904 5.5 14.5 5.83386 14.5 6.3125V10.6875C14.5 11.1661 14.904 11.5 15.3333 11.5H16.6667C18.2006 11.5 19.5 10.3267 19.5 8.8125V8.1875C19.5 6.67333 18.2006 5.5 16.6667 5.5H15.3333Z" fill="black"/>
</svg>
