<svg width="24" height="24" viewBox="0 0 24 24" fill="none" xmlns="http://www.w3.org/2000/svg">
<path d="M20.5413 2H10.125C9.32125 2 8.66625 2.65375 8.66625 3.45875V5.5425C8.66625 6.34625 9.32 7.00125 10.125 7.00125H20.5413C20.928 7.00026 21.2987 6.84608 21.5721 6.57246C21.8455 6.29883 21.9993 5.92805 22 5.54125V3.45875C22 2.65375 21.3463 2 20.5413 2Z" fill="#FBC02D"/>
<path d="M4.5 7C5.88071 7 7 5.88071 7 4.5C7 3.11929 5.88071 2 4.5 2C3.11929 2 2 3.11929 2 4.5C2 5.88071 3.11929 7 4.5 7Z" fill="#448AFF"/>
<path d="M20.5412 8.66614H3.45875C2.65875 8.66614 2 9.32489 2 10.1249V20.5411C2 21.3411 2.65875 21.9999 3.45875 21.9999H20.5425C21.3412 21.9999 22 21.3411 22 20.5411V10.1249C22 9.32489 21.3412 8.66614 20.5412 8.66614ZM9.70875 18.2499H5.125C4.78375 18.2499 4.5 17.9661 4.5 17.6249C4.5 17.2836 4.78375 16.9999 5.125 16.9999H9.70875C10.05 16.9999 10.3337 17.2836 10.3337 17.6249C10.3337 17.9661 10.05 18.2499 9.70875 18.2499ZM9.70875 15.7499H5.125C4.78375 15.7499 4.5 15.4661 4.5 15.1249C4.5 14.7836 4.78375 14.4999 5.125 14.4999H9.70875C10.05 14.4999 10.3337 14.7836 10.3337 15.1249C10.3337 15.4661 10.05 15.7499 9.70875 15.7499ZM9.70875 13.2499H5.125C4.78375 13.2499 4.5 12.9661 4.5 12.6249C4.5 12.2836 4.78375 11.9999 5.125 11.9999H9.70875C10.05 11.9999 10.3337 12.2836 10.3337 12.6249C10.3337 12.9661 10.05 13.2499 9.70875 13.2499ZM15.75 18.6661C13.6837 18.6661 12 16.9824 12 14.9161C12 12.8499 13.6837 11.1661 15.75 11.1661C17.8162 11.1661 19.5 12.8499 19.5 14.9161C19.5 16.9836 17.8162 18.6661 15.75 18.6661Z" fill="#E53935"/>
</svg>
